# xmcd
#
# Track frame offsets: 
#        150
#        12812
#        25637
#        37387
#        52587
#        64437
#        78087
#        90800
#        105825
#        119850
#        133237
#        147550
#        160400
#        173500
#        186362
#        199162
#
# Disc length: 2828 seconds
#
# Revision: 2
# Processed by: cddbd v1.5.2PL0 Copyright (c) Steve Scherf et al.
# Submitted via: ExactAudioCopyFreeDBPlugin 1.0
#
DISCID=d40b0a10
DTITLE=吳鶯音 - 金光燦爛耀舞台 CD1 - 吳鶯音
DYEAR=1997
DGENRE=Oldies
TTITLE0=恨不鍾情在當年
TTITLE1=月落烏啼
TTITLE2=隴上一朵玫瑰
TTITLE3=我有一段情
TTITLE4=紅燈綠酒夜
TTITLE5=樓台會
TTITLE6=岷江夜曲
TTITLE7=斷腸紅
TTITLE8=聽我細訴
TTITLE9=明月千里寄相思
TTITLE10=郎如春日風
TTITLE11=大地回春
TTITLE12=儂本痴情
TTITLE13=我想忘了你
TTITLE14=送郎
TTITLE15=萍水相逢
EXTD=
EXTT0=
EXTT1=
EXTT2=
EXTT3=
EXTT4=
EXTT5=
EXTT6=
EXTT7=
EXTT8=
EXTT9=
EXTT10=
EXTT11=
EXTT12=
EXTT13=
EXTT14=
EXTT15=
PLAYORDER=
